<svg width="20" height="20" viewBox="0 0 20 20" fill="none" xmlns="http://www.w3.org/2000/svg">
<path d="M5.41667 1.66675H14.5833C14.7127 1.66675 14.8403 1.69687 14.956 1.75473C15.0717 1.81258 15.1724 1.89658 15.25 2.00008L17.5 5.00008V17.5001C17.5 17.7211 17.4122 17.9331 17.2559 18.0893C17.0996 18.2456 16.8877 18.3334 16.6667 18.3334H3.33333C3.11232 18.3334 2.90036 18.2456 2.74408 18.0893C2.5878 17.9331 2.5 17.7211 2.5 17.5001V5.00008L4.75 2.00008C4.82762 1.89658 4.92828 1.81258 5.04399 1.75473C5.1597 1.69687 5.2873 1.66675 5.41667 1.66675ZM15.8333 6.66675H4.16667V16.6667H15.8333V6.66675ZM15.4167 5.00008L14.1667 3.33341H5.83333L4.58333 5.00008H15.4167ZM7.5 8.33342V10.0001C7.5 10.6631 7.76339 11.299 8.23223 11.7678C8.70107 12.2367 9.33696 12.5001 10 12.5001C10.663 12.5001 11.2989 12.2367 11.7678 11.7678C12.2366 11.299 12.5 10.6631 12.5 10.0001V8.33342H14.1667V10.0001C14.1667 11.1052 13.7277 12.165 12.9463 12.9464C12.1649 13.7278 11.1051 14.1667 10 14.1667C8.89493 14.1667 7.83512 13.7278 7.05372 12.9464C6.27232 12.165 5.83333 11.1052 5.83333 10.0001V8.33342H7.5Z" fill="#01215C"/>
</svg>
