<svg width="44" height="44" viewBox="0 0 44 44" fill="none" xmlns="http://www.w3.org/2000/svg">
<circle cx="22" cy="22" r="22" fill="white"/>
<path d="M17.4167 13.6667H26.5833C26.7127 13.6667 26.8403 13.6969 26.956 13.7547C27.0717 13.8126 27.1724 13.8966 27.25 14.0001L29.5 17.0001V29.5001C29.5 29.7211 29.4122 29.9331 29.2559 30.0893C29.0996 30.2456 28.8877 30.3334 28.6667 30.3334H15.3333C15.1123 30.3334 14.9004 30.2456 14.7441 30.0893C14.5878 29.9331 14.5 29.7211 14.5 29.5001V17.0001L16.75 14.0001C16.8276 13.8966 16.9283 13.8126 17.044 13.7547C17.1597 13.6969 17.2873 13.6667 17.4167 13.6667ZM27.8333 18.6667H16.1667V28.6667H27.8333V18.6667ZM27.4167 17.0001L26.1667 15.3334H17.8333L16.5833 17.0001H27.4167ZM19.5 20.3334V22.0001C19.5 22.6631 19.7634 23.299 20.2322 23.7678C20.7011 24.2367 21.337 24.5001 22 24.5001C22.663 24.5001 23.2989 24.2367 23.7678 23.7678C24.2366 23.299 24.5 22.6631 24.5 22.0001V20.3334H26.1667V22.0001C26.1667 23.1052 25.7277 24.165 24.9463 24.9464C24.1649 25.7278 23.1051 26.1667 22 26.1667C20.8949 26.1667 19.8351 25.7278 19.0537 24.9464C18.2723 24.165 17.8333 23.1052 17.8333 22.0001V20.3334H19.5Z" fill="#01215C"/>
</svg>
