<svg width="44" height="44" viewBox="0 0 44 44" fill="none" xmlns="http://www.w3.org/2000/svg">
<circle cx="22" cy="22" r="21.5" stroke="#01215C" stroke-opacity="0.05"/>
<path d="M14.5 14.5H29.5C29.721 14.5 29.933 14.5878 30.0893 14.7441C30.2456 14.9004 30.3334 15.1123 30.3334 15.3333V28.6667C30.3334 28.8877 30.2456 29.0996 30.0893 29.2559C29.933 29.4122 29.721 29.5 29.5 29.5H14.5C14.279 29.5 14.067 29.4122 13.9108 29.2559C13.7545 29.0996 13.6667 28.8877 13.6667 28.6667V15.3333C13.6667 15.1123 13.7545 14.9004 13.9108 14.7441C14.067 14.5878 14.279 14.5 14.5 14.5ZM28.6667 18.0317L22.06 23.9483L15.3334 18.0133V27.8333H28.6667V18.0317ZM15.7592 16.1667L22.0509 21.7183L28.2517 16.1667H15.7592Z" fill="#01215C"/>
</svg>
