<svg width="44" height="44" viewBox="0 0 44 44" fill="none" xmlns="http://www.w3.org/2000/svg">
<circle cx="22" cy="22" r="22" fill="white"/>
<path d="M22.0008 15.7742C23.9583 14.0166 26.9833 14.075 28.8691 15.9642C30.7541 17.8542 30.8191 20.8642 29.0658 22.8275L21.9991 29.9042L14.9341 22.8275C13.1808 20.8642 13.2466 17.8492 15.1308 15.9642C17.0183 14.0775 20.0375 14.0141 22.0008 15.7742V15.7742ZM27.6891 17.1417C26.4391 15.89 24.4225 15.8392 23.1141 17.0142L22.0016 18.0125L20.8883 17.015C19.5758 15.8383 17.5633 15.89 16.31 17.1433C15.0683 18.385 15.0058 20.3725 16.15 21.6858L22 27.545L27.85 21.6867C28.995 20.3725 28.9325 18.3875 27.6891 17.1417V17.1417Z" fill="#01215C"/>
</svg>
