<svg width="20" height="20" viewBox="0 0 20 20" fill="none" xmlns="http://www.w3.org/2000/svg">
<path d="M10.0009 3.77415C11.9584 2.01665 14.9834 2.07498 16.8693 3.96415C18.7543 5.85415 18.8193 8.86415 17.0659 10.8275L9.99925 17.9042L2.93425 10.8275C1.18092 8.86415 1.24675 5.84915 3.13092 3.96415C5.01842 2.07748 8.03759 2.01415 10.0009 3.77415ZM15.6893 5.14165C14.4393 3.88998 12.4226 3.83915 11.1143 5.01415L10.0018 6.01248L8.88842 5.01498C7.57592 3.83832 5.56342 3.88998 4.31009 5.14332C3.06842 6.38498 3.00592 8.37249 4.15009 9.68582L10.0001 15.545L15.8501 9.68665C16.9951 8.37248 16.9326 6.38748 15.6893 5.14165Z" fill="#01215C"/>
</svg>
