<svg width="44" height="44" viewBox="0 0 44 44" fill="none" xmlns="http://www.w3.org/2000/svg">
<circle cx="22" cy="22" r="21.5" stroke="#01215C" stroke-opacity="0.05"/>
<path d="M22 31.7734L16.6967 26.47C15.6478 25.4211 14.9335 24.0847 14.6441 22.6299C14.3547 21.175 14.5033 19.667 15.0709 18.2966C15.6386 16.9262 16.5999 15.7548 17.8332 14.9307C19.0666 14.1066 20.5166 13.6667 22 13.6667C23.4834 13.6667 24.9334 14.1066 26.1668 14.9307C27.4001 15.7548 28.3614 16.9262 28.9291 18.2966C29.4968 19.667 29.6453 21.175 29.3559 22.6299C29.0665 24.0847 28.3522 25.4211 27.3033 26.47L22 31.7734ZM26.125 25.2917C26.9408 24.4759 27.4963 23.4365 27.7213 22.3049C27.9463 21.1734 27.8308 20.0005 27.3892 18.9346C26.9477 17.8688 26.2 16.9578 25.2408 16.3168C24.2815 15.6759 23.1537 15.3338 22 15.3338C20.8463 15.3338 19.7185 15.6759 18.7592 16.3168C17.8 16.9578 17.0523 17.8688 16.6108 18.9346C16.1692 20.0005 16.0537 21.1734 16.2787 22.3049C16.5037 23.4365 17.0593 24.4759 17.875 25.2917L22 29.4167L26.125 25.2917ZM22 22.8334C21.558 22.8334 21.1341 22.6578 20.8215 22.3452C20.5089 22.0326 20.3333 21.6087 20.3333 21.1667C20.3333 20.7247 20.5089 20.3007 20.8215 19.9882C21.1341 19.6756 21.558 19.5 22 19.5C22.442 19.5 22.866 19.6756 23.1785 19.9882C23.4911 20.3007 23.6667 20.7247 23.6667 21.1667C23.6667 21.6087 23.4911 22.0326 23.1785 22.3452C22.866 22.6578 22.442 22.8334 22 22.8334Z" fill="#01215C"/>
</svg>
