<svg width="44" height="44" viewBox="0 0 44 44" fill="none" xmlns="http://www.w3.org/2000/svg">
<circle cx="22" cy="22" r="21.5" stroke="#01215C" stroke-opacity="0.05"/>
<path d="M17.3792 27.8333L13.6667 30.75V15.3333C13.6667 15.1123 13.7545 14.9004 13.9108 14.7441C14.067 14.5878 14.279 14.5 14.5 14.5H29.5C29.721 14.5 29.933 14.5878 30.0893 14.7441C30.2456 14.9004 30.3334 15.1123 30.3334 15.3333V27C30.3334 27.221 30.2456 27.433 30.0893 27.5893C29.933 27.7455 29.721 27.8333 29.5 27.8333H17.3792ZM16.8025 26.1667H28.6667V16.1667H15.3334V27.3208L16.8025 26.1667ZM18.6667 20.3333H25.3334V22H18.6667V20.3333Z" fill="#01215C"/>
</svg>
