<svg width="44" height="44" viewBox="0 0 44 44" fill="none" xmlns="http://www.w3.org/2000/svg">
<circle cx="22" cy="22" r="22" fill="white"/>
<path d="M19.805 20.9017C20.5869 22.2754 21.7246 23.4131 23.0983 24.195L23.835 23.1633C23.9535 22.9974 24.1286 22.8807 24.3273 22.8353C24.526 22.7898 24.7345 22.8188 24.9133 22.9167C26.0919 23.5608 27.3935 23.9481 28.7325 24.0533C28.9415 24.0699 29.1365 24.1646 29.2788 24.3186C29.421 24.4726 29.5 24.6745 29.5 24.8842V28.6025C29.5 28.8088 29.4235 29.0078 29.2853 29.161C29.1471 29.3142 28.9569 29.4106 28.7517 29.4317C28.31 29.4775 27.865 29.5 27.4167 29.5C20.2833 29.5 14.5 23.7167 14.5 16.5833C14.5 16.135 14.5225 15.69 14.5683 15.2483C14.5894 15.0431 14.6858 14.8529 14.839 14.7147C14.9922 14.5765 15.1912 14.5 15.3975 14.5H19.1158C19.3255 14.5 19.5274 14.579 19.6814 14.7212C19.8354 14.8635 19.9301 15.0585 19.9467 15.2675C20.0519 16.6065 20.4392 17.9081 21.0833 19.0867C21.1812 19.2655 21.2102 19.474 21.1647 19.6727C21.1193 19.8714 21.0026 20.0465 20.8367 20.165L19.805 20.9017V20.9017ZM17.7033 20.3542L19.2867 19.2233C18.8373 18.2534 18.5295 17.224 18.3725 16.1667H16.175C16.17 16.305 16.1675 16.4442 16.1675 16.5833C16.1667 22.7967 21.2033 27.8333 27.4167 27.8333C27.5558 27.8333 27.695 27.8308 27.8333 27.825V25.6275C26.776 25.4705 25.7466 25.1627 24.7767 24.7133L23.6458 26.2967C23.1906 26.1198 22.7483 25.9109 22.3225 25.6717L22.2742 25.6442C20.6396 24.7139 19.2861 23.3604 18.3558 21.7258L18.3283 21.6775C18.0891 21.2517 17.8802 20.8094 17.7033 20.3542V20.3542Z" fill="#01215C"/>
</svg>
