<svg width="44" height="44" viewBox="0 0 44 44" fill="none" xmlns="http://www.w3.org/2000/svg">
<circle cx="22" cy="22" r="22" fill="white"/>
<path d="M27.0258 25.8476L30.595 29.4159L29.4158 30.5951L25.8475 27.0259C24.5197 28.0903 22.8683 28.6692 21.1666 28.6667C17.0266 28.6667 13.6666 25.3067 13.6666 21.1667C13.6666 17.0267 17.0266 13.6667 21.1666 13.6667C25.3066 13.6667 28.6666 17.0267 28.6666 21.1667C28.669 22.8684 28.0901 24.5199 27.0258 25.8476ZM25.3541 25.2292C26.4117 24.1417 27.0023 22.6838 27 21.1667C27 17.9434 24.3891 15.3334 21.1666 15.3334C17.9433 15.3334 15.3333 17.9434 15.3333 21.1667C15.3333 24.3892 17.9433 27.0001 21.1666 27.0001C22.6837 27.0025 24.1415 26.4118 25.2291 25.3542L25.3541 25.2292V25.2292Z" fill="#01215C"/>
</svg>
